<svg width="13" height="13" viewBox="0 0 13 13" fill="none" xmlns="http://www.w3.org/2000/svg">
<path fill-rule="evenodd" clip-rule="evenodd" d="M4.67028 1.33803C4.57023 0.964606 4.18639 0.742993 3.81296 0.843058C3.43954 0.943116 3.21793 1.32695 3.31799 1.70038L3.49916 2.37653C3.59922 2.74995 3.98306 2.97156 4.35649 2.8715C4.72991 2.77144 4.95151 2.3876 4.85146 2.01418L4.67028 1.33803ZM1.70044 3.31793C1.32701 3.21787 0.943175 3.43948 0.843117 3.81291C0.743059 4.18633 0.964665 4.57017 1.33809 4.67022L2.01424 4.8514C2.38767 4.95146 2.7715 4.72985 2.87156 4.35642C2.97162 3.983 2.75002 3.59916 2.37659 3.4991L1.70044 3.31793ZM7.86986 2.92004C8.14321 2.64668 8.14321 2.20346 7.86986 1.9301C7.59651 1.65673 7.15327 1.65673 6.8799 1.9301L6.38493 2.42507C6.11156 2.69844 6.11156 3.14166 6.38493 3.41502C6.6583 3.68838 7.10154 3.68838 7.37489 3.41502L7.86986 2.92004ZM2.92011 7.86982L3.41508 7.37485C3.68845 7.10143 3.68845 6.65824 3.41508 6.38487C3.14171 6.1115 2.6985 6.1115 2.42513 6.38487L1.93015 6.87984C1.65679 7.15323 1.65679 7.5964 1.93015 7.86982C2.20353 8.14317 2.64674 8.14317 2.92011 7.86982ZM5.16005 4.25006C4.90006 4.14606 4.6031 4.20701 4.4051 4.40502C4.2071 4.60302 4.14615 4.89998 4.25014 5.15997L7.05016 12.16C7.1525 12.4159 7.39554 12.588 7.67099 12.5994C7.94637 12.6108 8.20292 12.4596 8.32619 12.213L9.29184 10.2817L11.4051 12.395C11.6785 12.6683 12.1217 12.6683 12.3951 12.395C12.6684 12.1216 12.6684 11.6784 12.3951 11.405L10.2818 9.29173L12.2132 8.32608C12.4597 8.20281 12.611 7.94633 12.5995 7.67088C12.588 7.3955 12.416 7.15246 12.16 7.05005L5.16005 4.25006Z" fill="white"/>
</svg>
