<svg width="51" height="51" viewBox="0 0 51 51" fill="none" xmlns="http://www.w3.org/2000/svg">
<path d="M49.3 23.8H27.2V1.7C27.2 1.24913 27.0209 0.816729 26.7021 0.497917C26.3833 0.179105 25.9509 0 25.5 0C25.0491 0 24.6167 0.179105 24.2979 0.497917C23.9791 0.816729 23.8 1.24913 23.8 1.7V23.8H1.7C1.24913 23.8 0.81673 23.9791 0.497919 24.2979C0.179107 24.6167 0 25.0491 0 25.5C0 25.9509 0.179107 26.3833 0.497919 26.7021C0.81673 27.0209 1.24913 27.2 1.7 27.2H23.8V49.3C23.8 49.7509 23.9791 50.1833 24.2979 50.5021C24.6167 50.8209 25.0491 51 25.5 51C25.9509 51 26.3833 50.8209 26.7021 50.5021C27.0209 50.1833 27.2 49.7509 27.2 49.3V27.2H49.3C49.7509 27.2 50.1833 27.0209 50.5021 26.7021C50.8209 26.3833 51 25.9509 51 25.5C51 25.0491 50.8209 24.6167 50.5021 24.2979C50.1833 23.9791 49.7509 23.8 49.3 23.8Z" fill="#B8B8B8"/>
</svg>
